{
  "accessors": [
    {
      "bufferView": 2,
      "componentType": 5126,
      "count": 14970,
      "max": [
        0.10320068895816803,
        0.10256095975637436,
        0.5180643796920776
      ],
      "min": [
        -0.10320068895816803,
        -0.10146202147006989,
        -0.09207702428102493
      ],
      "type": "VEC3"
    },
    {
      "bufferView": 2,
      "byteOffset": 179640,
      "componentType": 5126,
      "count": 14970,
      "max": [
        1.0,
        1.0,
        1.0
      ],
      "min": [
        -1.0,
        -1.0,
        -1.0
      ],
      "type": "VEC3"
    },
    {
      "bufferView": 3,
      "componentType": 5126,
      "count": 14970,
      "max": [
        1.0,
        1.0,
        1.0,
        1.0
      ],
      "min": [
        -1.0,
        -1.0,
        -1.0,
        -1.0
      ],
      "type": "VEC4"
    },
    {
      "bufferView": 1,
      "componentType": 5126,
      "count": 14970,
      "max": [
        0.9973965883255005,
        0.9934137463569641
      ],
      "min": [
        0.0026052682660520077,
        0.0026036500930786133
      ],
      "type": "VEC2"
    },
    {
      "bufferView": 0,
      "componentType": 5125,
      "count": 60693,
      "type": "SCALAR"
    },
    {
      "bufferView": 2,
      "byteOffset": 359280,
      "componentType": 5126,
      "count": 1170,
      "max": [
        0.09792977571487427,
        0.0992923378944397,
        0.5496423244476318
      ],
      "min": [
        -0.09792976826429367,
        -0.09819340705871582,
        0.4877481758594513
      ],
      "type": "VEC3"
    },
    {
      "bufferView": 2,
      "byteOffset": 373320,
      "componentType": 5126,
      "count": 1170,
      "max": [
        0.9915684461593628,
        0.9915685653686523,
        1.0
      ],
      "min": [
        -0.9915684461593628,
        -0.9915684461593628,
        -0.8055543303489685
      ],
      "type": "VEC3"
    },
    {
      "bufferView": 1,
      "byteOffset": 119760,
      "componentType": 5126,
      "count": 1170,
      "max": [
        0.8930932283401489,
        0.9174623489379883
      ],
      "min": [
        0.041446030139923096,
        0.28923481702804565
      ],
      "type": "VEC2"
    },
    {
      "bufferView": 0,
      "byteOffset": 242772,
      "componentType": 5125,
      "count": 6480,
      "type": "SCALAR"
    }
  ],
  "asset": {
    "extras": {
      "author": "carlcapu9 (https://sketchfab.com/carlcapu9)",
      "license": "CC-BY-SA-4.0 (http://creativecommons.org/licenses/by-sa/4.0/)",
      "source": "https://sketchfab.com/3d-models/titanic-lamp-882342fc76b44b9b80ace341db4c0707",
      "title": "Titanic Lamp"
    },
    "generator": "Sketchfab-15.0.0",
    "version": "2.0"
  },
  "bufferViews": [
    {
      "buffer": 0,
      "byteLength": 268692,
      "name": "floatBufferViews",
      "target": 34963
    },
    {
      "buffer": 0,
      "byteLength": 129120,
      "byteOffset": 268692,
      "byteStride": 8,
      "name": "floatBufferViews",
      "target": 34962
    },
    {
      "buffer": 0,
      "byteLength": 387360,
      "byteOffset": 397812,
      "byteStride": 12,
      "name": "floatBufferViews",
      "target": 34962
    },
    {
      "buffer": 0,
      "byteLength": 239520,
      "byteOffset": 785172,
      "byteStride": 16,
      "name": "floatBufferViews",
      "target": 34962
    }
  ],
  "buffers": [
    {
      "byteLength": 1024692,
      "uri": "scene.bin"
    }
  ],
  "extensionsUsed": [
    "KHR_materials_emissive_strength"
  ],
  "images": [
    {
      "uri": "textures/Lamp_baseColor.png"
    },
    {
      "uri": "textures/Lamp_metallicRoughness.png"
    },
    {
      "uri": "textures/Lamp_normal.png"
    }
  ],
  "materials": [
    {
      "doubleSided": true,
      "name": "Lamp",
      "normalTexture": {
        "index": 2
      },
      "pbrMetallicRoughness": {
        "baseColorTexture": {
          "index": 0
        },
        "metallicRoughnessTexture": {
          "index": 1
        },
        "roughnessFactor": 0.5732463260553661
      }
    },
    {
      "doubleSided": true,
      "emissiveFactor": [
        0.9602083826516892,
        0.25971310097918343,
        0.019100874302766614
      ],
      "extensions": {
        "KHR_materials_emissive_strength": {
          "emissiveStrength": 10.0
        }
      },
      "name": "Emission",
      "pbrMetallicRoughness": {
        "baseColorFactor": [
          0.9213560469775339,
          0.8534122863139142,
          0.7801328339382403,
          1.0
        ],
        "metallicFactor": 0.0,
        "roughnessFactor": 0.8211145618000169
      }
    }
  ],
  "meshes": [
    {
      "name": "Cube.256_Lamp_0",
      "primitives": [
        {
          "attributes": {
            "NORMAL": 1,
            "POSITION": 0,
            "TANGENT": 2,
            "TEXCOORD_0": 3
          },
          "indices": 4,
          "material": 0,
          "mode": 4
        }
      ]
    },
    {
      "name": "Cube.256_Emission_0",
      "primitives": [
        {
          "attributes": {
            "NORMAL": 6,
            "POSITION": 5,
            "TEXCOORD_0": 7
          },
          "indices": 8,
          "material": 1,
          "mode": 4
        }
      ]
    }
  ],
  "nodes": [
    {
      "children": [
        1
      ],
      "matrix": [
        1.0,
        2.8327693431939985e-16,
        2.8327693431939995e-16,
        0.0,
        2.832769343193999e-16,
        5.053215392444312e-16,
        -1.0,
        0.0,
        -2.832769343193999e-16,
        1.0,
        5.053215392444312e-16,
        0.0,
        0.0,
        0.0,
        0.0,
        1.0
      ],
      "name": "Sketchfab_model"
    },
    {
      "children": [
        2
      ],
      "matrix": [
        1.0,
        0.0,
        0.0,
        0.0,
        0.0,
        0.0,
        1.0,
        0.0,
        0.0,
        -1.0,
        0.0,
        0.0,
        0.0,
        0.0,
        0.0,
        1.0
      ],
      "name": "40c6c497d221465e8dce909d65b317e0.fbx"
    },
    {
      "children": [
        3
      ],
      "name": "RootNode"
    },
    {
      "children": [
        4,
        5
      ],
      "matrix": [
        166.5775146484375,
        0.0,
        0.0,
        0.0,
        0.0,
        -2.7138921857926187e-05,
        -166.5775146484353,
        0.0,
        0.0,
        166.5775146484353,
        -2.7138921857926187e-05,
        0.0,
        215.04364013671875,
        118.55709838867188,
        127.05923461914063,
        1.0
      ],
      "name": "Cube.256"
    },
    {
      "mesh": 0,
      "name": "Cube.256_Lamp_0"
    },
    {
      "mesh": 1,
      "name": "Cube.256_Emission_0"
    }
  ],
  "samplers": [
    {
      "magFilter": 9729,
      "minFilter": 9987,
      "wrapS": 10497,
      "wrapT": 10497
    }
  ],
  "scene": 0,
  "scenes": [
    {
      "name": "Sketchfab_Scene",
      "nodes": [
        0
      ]
    }
  ],
  "textures": [
    {
      "sampler": 0,
      "source": 0
    },
    {
      "sampler": 0,
      "source": 1
    },
    {
      "sampler": 0,
      "source": 2
    }
  ]
}
